<?xml version="1.0" encoding="iso-8859-1"?>
<!-- Generator: Adobe Illustrator 19.0.0, SVG Export Plug-In . SVG Version: 6.00 Build 0)  -->
<svg version="1.1" id="Layer_1" xmlns="http://www.w3.org/2000/svg" xmlns:xlink="http://www.w3.org/1999/xlink" x="0px" y="0px"
	 viewBox="0 0 512.001 512.001" style="enable-background:new 0 0 512.001 512.001;" xml:space="preserve">
<path style="fill:#FF6F52;" d="M453.851,171.837c-43.473-217.282-352.492-217.282-395.965,0
	c-3.663,18.304-5.583,37.235-5.583,56.616c0,129.49,85.755,238.937,203.566,274.689c117.811-35.752,203.565-145.199,203.565-274.689
	C459.434,209.072,457.514,190.14,453.851,171.837z"/>
<circle style="fill:#CFDCE5;" cx="255.873" cy="204.188" r="107.079"/>
<path style="fill:#BAC6CC;" d="M182.45,204.189c0-53.412,39.107-97.685,90.25-105.759c-5.484-0.866-11.104-1.32-16.83-1.32
	c-59.139,0-107.08,47.941-107.08,107.08s47.941,107.08,107.08,107.08c5.726,0,11.347-0.455,16.83-1.32
	C221.557,301.875,182.45,257.601,182.45,204.189z"/>
<path d="M462.668,170.099c-6.38-31.89-18.521-60.495-36.085-85.018c-2.849-3.979-8.381-4.893-12.36-2.044
	c-3.977,2.849-4.893,8.382-2.043,12.36c16.09,22.466,27.233,48.77,33.116,78.178c3.591,17.947,5.412,36.41,5.412,54.877
	c0,60.876-19.303,118.681-55.821,167.167c-34.788,46.188-84.031,81-138.887,98.251c-54.856-17.25-104.099-52.063-138.887-98.251
	c-36.518-48.487-55.821-106.292-55.821-167.167c0-18.471,1.82-36.934,5.411-54.877c14.425-72.091,61.338-125.54,128.714-146.642
	c68.752-21.533,145.352-4.47,195.156,43.466c3.526,3.394,9.133,3.285,12.524-0.24c3.393-3.524,3.286-9.132-0.239-12.524
	c-27.319-26.294-62.082-44.531-100.531-52.742c-37.271-7.957-76.069-6.183-112.207,5.134
	C116.379,33.122,65.062,91.466,49.33,170.099c-3.817,19.085-5.754,38.718-5.754,58.353c0,64.751,20.536,126.243,59.386,177.826
	c37.573,49.886,91.01,87.296,150.466,105.34c0.839,0.254,1.704,0.382,2.572,0.382c0.868,0,1.734-0.128,2.572-0.382
	c59.457-18.042,112.893-55.454,150.466-105.34c38.851-51.582,59.386-113.074,59.386-177.826
	C468.424,208.82,466.487,189.188,462.668,170.099z"/>
<path d="M255.999,302.411c-19.981,0-39.207-5.961-55.6-17.239c-4.031-2.773-9.546-1.754-12.319,2.277
	c-2.773,4.031-1.753,9.546,2.277,12.319c19.361,13.32,42.059,20.361,65.642,20.361c63.928,0,115.937-52.01,115.937-115.938
	S319.927,88.252,255.999,88.252s-115.938,52.01-115.938,115.938c0,23.232,6.849,45.65,19.806,64.828
	c2.738,4.054,8.243,5.119,12.299,2.381c4.055-2.739,5.12-8.245,2.382-12.299c-10.971-16.239-16.769-35.228-16.769-54.911
	c0-54.159,44.062-98.222,98.222-98.222c54.158,0,98.22,44.062,98.22,98.222S310.159,302.411,255.999,302.411z"/>
<g>
</g>
<g>
</g>
<g>
</g>
<g>
</g>
<g>
</g>
<g>
</g>
<g>
</g>
<g>
</g>
<g>
</g>
<g>
</g>
<g>
</g>
<g>
</g>
<g>
</g>
<g>
</g>
<g>
</g>
</svg>
